<mxfile host="app.diagrams.net" modified="2021-05-20T09:11:42.488Z" agent="5.0 (Windows NT 6.1; Win64; x64) AppleWebKit/537.36 (KHTML, like Gecko) Chrome/90.0.4430.212 Safari/537.36" etag="1KuoM2dBTkNxb9filb12" version="14.6.13" type="github">
  <diagram id="C5RBs43oDa-KdzZeNtuy" name="Page-1">
    <mxGraphModel dx="1021" dy="1710" grid="1" gridSize="10" guides="1" tooltips="1" connect="1" arrows="1" fold="1" page="1" pageScale="1" pageWidth="827" pageHeight="1169" math="0" shadow="0">
      <root>
        <mxCell id="WIyWlLk6GJQsqaUBKTNV-0" />
        <mxCell id="WIyWlLk6GJQsqaUBKTNV-1" parent="WIyWlLk6GJQsqaUBKTNV-0" />
        <mxCell id="WIyWlLk6GJQsqaUBKTNV-3" value="LDAP USER" style="rounded=1;whiteSpace=wrap;html=1;fontSize=12;glass=0;strokeWidth=1;shadow=0;fillColor=#66FFFF;" parent="WIyWlLk6GJQsqaUBKTNV-1" vertex="1">
          <mxGeometry x="300" y="-450" width="140" height="60" as="geometry" />
        </mxCell>
        <mxCell id="GpPaN3cz_Rcnz9B_mUzN-13" style="edgeStyle=orthogonalEdgeStyle;rounded=0;orthogonalLoop=1;jettySize=auto;html=1;" parent="WIyWlLk6GJQsqaUBKTNV-1" source="WIyWlLk6GJQsqaUBKTNV-6" target="GpPaN3cz_Rcnz9B_mUzN-14" edge="1">
          <mxGeometry relative="1" as="geometry">
            <mxPoint x="500" y="-285" as="targetPoint" />
            <Array as="points">
              <mxPoint x="635" y="-285" />
            </Array>
          </mxGeometry>
        </mxCell>
        <mxCell id="WIyWlLk6GJQsqaUBKTNV-6" value="GIT LAB" style="rhombus;whiteSpace=wrap;html=1;shadow=0;fontFamily=Helvetica;fontSize=12;align=center;strokeWidth=1;spacing=6;spacingTop=-4;fillColor=#66FFFF;" parent="WIyWlLk6GJQsqaUBKTNV-1" vertex="1">
          <mxGeometry x="305" y="-340" width="130" height="120" as="geometry" />
        </mxCell>
        <mxCell id="GpPaN3cz_Rcnz9B_mUzN-17" style="edgeStyle=orthogonalEdgeStyle;rounded=0;orthogonalLoop=1;jettySize=auto;html=1;entryX=0;entryY=0.5;entryDx=0;entryDy=0;" parent="WIyWlLk6GJQsqaUBKTNV-1" source="WIyWlLk6GJQsqaUBKTNV-7" target="WIyWlLk6GJQsqaUBKTNV-12" edge="1">
          <mxGeometry relative="1" as="geometry" />
        </mxCell>
        <mxCell id="WIyWlLk6GJQsqaUBKTNV-7" value="STAGGING SERVER" style="rounded=1;whiteSpace=wrap;html=1;fontSize=12;glass=0;strokeWidth=1;shadow=0;fillColor=#66FFFF;" parent="WIyWlLk6GJQsqaUBKTNV-1" vertex="1">
          <mxGeometry x="130" y="-40" width="120" height="40" as="geometry" />
        </mxCell>
        <mxCell id="WIyWlLk6GJQsqaUBKTNV-12" value="PRE-PROD SERVER" style="rounded=1;whiteSpace=wrap;html=1;fontSize=12;glass=0;strokeWidth=1;shadow=0;fillColor=#66FFFF;" parent="WIyWlLk6GJQsqaUBKTNV-1" vertex="1">
          <mxGeometry x="353.5" y="-40" width="120" height="40" as="geometry" />
        </mxCell>
        <mxCell id="GpPaN3cz_Rcnz9B_mUzN-19" style="edgeStyle=orthogonalEdgeStyle;rounded=0;orthogonalLoop=1;jettySize=auto;html=1;" parent="WIyWlLk6GJQsqaUBKTNV-1" source="GpPaN3cz_Rcnz9B_mUzN-0" edge="1">
          <mxGeometry relative="1" as="geometry">
            <mxPoint x="540" y="180" as="targetPoint" />
            <Array as="points">
              <mxPoint x="750" y="-20" />
              <mxPoint x="750" y="110" />
              <mxPoint x="710" y="110" />
              <mxPoint x="710" y="180" />
            </Array>
          </mxGeometry>
        </mxCell>
        <mxCell id="GpPaN3cz_Rcnz9B_mUzN-0" value="PROD SERVER" style="rounded=1;whiteSpace=wrap;html=1;fillColor=#66FFFF;" parent="WIyWlLk6GJQsqaUBKTNV-1" vertex="1">
          <mxGeometry x="590" y="-40" width="120" height="40" as="geometry" />
        </mxCell>
        <mxCell id="GpPaN3cz_Rcnz9B_mUzN-5" value="e-transport services" style="rounded=1;whiteSpace=wrap;html=1;fillColor=#66FFFF;fontSize=21;" parent="WIyWlLk6GJQsqaUBKTNV-1" vertex="1">
          <mxGeometry x="300" y="100" width="230" height="150" as="geometry" />
        </mxCell>
        <mxCell id="GpPaN3cz_Rcnz9B_mUzN-11" value="DEVELOPER" style="rounded=1;whiteSpace=wrap;html=1;fillColor=#66FFFF;" parent="WIyWlLk6GJQsqaUBKTNV-1" vertex="1">
          <mxGeometry x="20" y="-450" width="120" height="60" as="geometry" />
        </mxCell>
        <mxCell id="GpPaN3cz_Rcnz9B_mUzN-14" value="&lt;font style=&quot;font-size: 17px&quot;&gt;&lt;b&gt;GIT GROUPS&lt;/b&gt;&lt;br&gt;STAGING/PRE-PROD/PROD&lt;b&gt;.&lt;/b&gt;&lt;br&gt;&lt;/font&gt;" style="rounded=1;whiteSpace=wrap;html=1;fillColor=#66FFFF;" parent="WIyWlLk6GJQsqaUBKTNV-1" vertex="1">
          <mxGeometry x="490" y="-260" width="290" height="60" as="geometry" />
        </mxCell>
        <mxCell id="GpPaN3cz_Rcnz9B_mUzN-15" style="edgeStyle=orthogonalEdgeStyle;rounded=0;orthogonalLoop=1;jettySize=auto;html=1;entryX=0;entryY=0.5;entryDx=0;entryDy=0;" parent="WIyWlLk6GJQsqaUBKTNV-1" source="WIyWlLk6GJQsqaUBKTNV-12" target="GpPaN3cz_Rcnz9B_mUzN-0" edge="1">
          <mxGeometry relative="1" as="geometry" />
        </mxCell>
        <mxCell id="VhaobK5-lOd5B4ERpxdm-3" value="" style="endArrow=classic;startArrow=classic;html=1;exitX=0.417;exitY=-0.05;exitDx=0;exitDy=0;exitPerimeter=0;" edge="1" parent="WIyWlLk6GJQsqaUBKTNV-1" source="WIyWlLk6GJQsqaUBKTNV-7">
          <mxGeometry width="50" height="50" relative="1" as="geometry">
            <mxPoint x="390" y="-150" as="sourcePoint" />
            <mxPoint x="540" y="-198" as="targetPoint" />
            <Array as="points">
              <mxPoint x="180" y="-110" />
              <mxPoint x="540" y="-110" />
            </Array>
          </mxGeometry>
        </mxCell>
        <mxCell id="VhaobK5-lOd5B4ERpxdm-4" value="" style="endArrow=classic;startArrow=classic;html=1;entryX=0.517;entryY=1;entryDx=0;entryDy=0;entryPerimeter=0;exitX=0.429;exitY=-0.1;exitDx=0;exitDy=0;exitPerimeter=0;" edge="1" parent="WIyWlLk6GJQsqaUBKTNV-1" source="WIyWlLk6GJQsqaUBKTNV-12" target="GpPaN3cz_Rcnz9B_mUzN-14">
          <mxGeometry width="50" height="50" relative="1" as="geometry">
            <mxPoint x="390" y="-150" as="sourcePoint" />
            <mxPoint x="640" y="-190" as="targetPoint" />
            <Array as="points">
              <mxPoint x="405" y="-80" />
              <mxPoint x="580" y="-80" />
              <mxPoint x="580" y="-120" />
              <mxPoint x="640" y="-120" />
            </Array>
          </mxGeometry>
        </mxCell>
        <mxCell id="VhaobK5-lOd5B4ERpxdm-5" value="" style="endArrow=classic;startArrow=classic;html=1;exitX=0.425;exitY=-0.075;exitDx=0;exitDy=0;exitPerimeter=0;" edge="1" parent="WIyWlLk6GJQsqaUBKTNV-1" source="GpPaN3cz_Rcnz9B_mUzN-0">
          <mxGeometry width="50" height="50" relative="1" as="geometry">
            <mxPoint x="390" y="-150" as="sourcePoint" />
            <mxPoint x="760" y="-190" as="targetPoint" />
            <Array as="points">
              <mxPoint x="640" y="-80" />
              <mxPoint x="760" y="-80" />
            </Array>
          </mxGeometry>
        </mxCell>
        <mxCell id="VhaobK5-lOd5B4ERpxdm-6" value="JENKINS PIPELINES" style="text;html=1;strokeColor=none;fillColor=none;align=center;verticalAlign=middle;whiteSpace=wrap;rounded=0;fontSize=21;" vertex="1" parent="WIyWlLk6GJQsqaUBKTNV-1">
          <mxGeometry x="300" y="-110" width="310" height="30" as="geometry" />
        </mxCell>
        <mxCell id="VhaobK5-lOd5B4ERpxdm-10" value="" style="endArrow=classic;startArrow=classic;html=1;fontSize=21;entryX=0.5;entryY=1;entryDx=0;entryDy=0;exitX=0.5;exitY=0;exitDx=0;exitDy=0;" edge="1" parent="WIyWlLk6GJQsqaUBKTNV-1" source="WIyWlLk6GJQsqaUBKTNV-6" target="WIyWlLk6GJQsqaUBKTNV-3">
          <mxGeometry width="50" height="50" relative="1" as="geometry">
            <mxPoint x="350" y="-140" as="sourcePoint" />
            <mxPoint x="400" y="-190" as="targetPoint" />
          </mxGeometry>
        </mxCell>
        <mxCell id="VhaobK5-lOd5B4ERpxdm-12" value="&lt;font style=&quot;font-size: 13px&quot;&gt;SOURCE CODE&lt;/font&gt;" style="ellipse;whiteSpace=wrap;html=1;fontSize=21;fillColor=#66FFFF;" vertex="1" parent="WIyWlLk6GJQsqaUBKTNV-1">
          <mxGeometry x="150" y="-320" width="120" height="80" as="geometry" />
        </mxCell>
        <mxCell id="VhaobK5-lOd5B4ERpxdm-13" value="" style="endArrow=classic;startArrow=classic;html=1;fontSize=21;exitX=1;exitY=0.5;exitDx=0;exitDy=0;entryX=0;entryY=0.5;entryDx=0;entryDy=0;" edge="1" parent="WIyWlLk6GJQsqaUBKTNV-1" source="GpPaN3cz_Rcnz9B_mUzN-11" target="WIyWlLk6GJQsqaUBKTNV-3">
          <mxGeometry width="50" height="50" relative="1" as="geometry">
            <mxPoint x="250" y="-350" as="sourcePoint" />
            <mxPoint x="400" y="-380" as="targetPoint" />
          </mxGeometry>
        </mxCell>
        <mxCell id="VhaobK5-lOd5B4ERpxdm-14" value="" style="endArrow=classic;startArrow=classic;html=1;fontSize=21;exitX=1;exitY=0.5;exitDx=0;exitDy=0;entryX=0;entryY=0.5;entryDx=0;entryDy=0;" edge="1" parent="WIyWlLk6GJQsqaUBKTNV-1" source="VhaobK5-lOd5B4ERpxdm-12" target="WIyWlLk6GJQsqaUBKTNV-6">
          <mxGeometry width="50" height="50" relative="1" as="geometry">
            <mxPoint x="350" y="-330" as="sourcePoint" />
            <mxPoint x="300" y="-280" as="targetPoint" />
          </mxGeometry>
        </mxCell>
      </root>
    </mxGraphModel>
  </diagram>
</mxfile>
